<mxfile host="app.diagrams.net" modified="2021-08-11T02:56:46.193Z" agent="5.0 (X11; Linux x86_64) AppleWebKit/537.36 (KHTML, like Gecko) Chrome/86.0.4240.198 Safari/537.36" etag="pqWsZUXhuwc3nz3-F-Nd" version="14.8.5" type="github">
  <diagram name="Page-1" id="13e1069c-82ec-6db2-03f1-153e76fe0fe0">
    <mxGraphModel dx="1422" dy="866" grid="1" gridSize="10" guides="1" tooltips="1" connect="1" arrows="1" fold="1" page="1" pageScale="1" pageWidth="1100" pageHeight="850" background="none" math="0" shadow="0">
      <root>
        <mxCell id="0" />
        <mxCell id="1" parent="0" />
        <mxCell id="7baba1c4bc27f4b0-2" value="web服务" style="shape=umlLifeline;perimeter=lifelinePerimeter;whiteSpace=wrap;html=1;container=1;collapsible=0;recursiveResize=0;outlineConnect=0;rounded=1;shadow=0;comic=0;labelBackgroundColor=none;strokeWidth=1;fontFamily=Verdana;fontSize=12;align=center;" parent="1" vertex="1">
          <mxGeometry x="240" y="80" width="100" height="780" as="geometry" />
        </mxCell>
        <mxCell id="7baba1c4bc27f4b0-10" value="" style="html=1;points=[];perimeter=orthogonalPerimeter;rounded=0;shadow=0;comic=0;labelBackgroundColor=none;strokeWidth=1;fontFamily=Verdana;fontSize=12;align=center;fillColor=#d5e8d4;strokeColor=#82b366;" parent="7baba1c4bc27f4b0-2" vertex="1">
          <mxGeometry x="45" y="110" width="10" height="110" as="geometry" />
        </mxCell>
        <mxCell id="7baba1c4bc27f4b0-3" value="云存储" style="shape=umlLifeline;perimeter=lifelinePerimeter;whiteSpace=wrap;html=1;container=1;collapsible=0;recursiveResize=0;outlineConnect=0;rounded=1;shadow=0;comic=0;labelBackgroundColor=none;strokeWidth=1;fontFamily=Verdana;fontSize=12;align=center;" parent="1" vertex="1">
          <mxGeometry x="571" y="80" width="100" height="740" as="geometry" />
        </mxCell>
        <mxCell id="7baba1c4bc27f4b0-13" value="" style="html=1;points=[];perimeter=orthogonalPerimeter;rounded=0;shadow=0;comic=0;labelBackgroundColor=none;strokeWidth=1;fontFamily=Verdana;fontSize=12;align=center;fillColor=#d5e8d4;strokeColor=#82b366;" parent="7baba1c4bc27f4b0-3" vertex="1">
          <mxGeometry x="45" y="230" width="10" height="70" as="geometry" />
        </mxCell>
        <mxCell id="7baba1c4bc27f4b0-4" value="去背景服务" style="shape=umlLifeline;perimeter=lifelinePerimeter;whiteSpace=wrap;html=1;container=1;collapsible=0;recursiveResize=0;outlineConnect=0;rounded=1;shadow=0;comic=0;labelBackgroundColor=none;strokeWidth=1;fontFamily=Verdana;fontSize=12;align=center;" parent="1" vertex="1">
          <mxGeometry x="416" y="80" width="100" height="790" as="geometry" />
        </mxCell>
        <mxCell id="7baba1c4bc27f4b0-5" value="mq" style="shape=umlLifeline;perimeter=lifelinePerimeter;whiteSpace=wrap;html=1;container=1;collapsible=0;recursiveResize=0;outlineConnect=0;rounded=1;shadow=0;comic=0;labelBackgroundColor=none;strokeWidth=1;fontFamily=Verdana;fontSize=12;align=center;" parent="1" vertex="1">
          <mxGeometry x="693" y="80" width="100" height="780" as="geometry" />
        </mxCell>
        <mxCell id="7baba1c4bc27f4b0-8" value="app" style="shape=umlLifeline;perimeter=lifelinePerimeter;whiteSpace=wrap;html=1;container=1;collapsible=0;recursiveResize=0;outlineConnect=0;rounded=1;shadow=0;comic=0;labelBackgroundColor=none;strokeWidth=1;fontFamily=Verdana;fontSize=12;align=center;" parent="1" vertex="1">
          <mxGeometry x="100" y="80" width="100" height="790" as="geometry" />
        </mxCell>
        <mxCell id="7baba1c4bc27f4b0-9" value="" style="html=1;points=[];perimeter=orthogonalPerimeter;rounded=0;shadow=0;comic=0;labelBackgroundColor=none;strokeWidth=1;fontFamily=Verdana;fontSize=12;align=center;" parent="7baba1c4bc27f4b0-8" vertex="1">
          <mxGeometry x="45" y="80" width="10" height="490" as="geometry" />
        </mxCell>
        <mxCell id="7baba1c4bc27f4b0-19" value="" style="html=1;points=[];perimeter=orthogonalPerimeter;rounded=0;shadow=0;comic=0;labelBackgroundColor=none;strokeWidth=1;fontFamily=Verdana;fontSize=12;align=center;" parent="1" vertex="1">
          <mxGeometry x="738" y="420" width="10" height="430" as="geometry" />
        </mxCell>
        <mxCell id="7baba1c4bc27f4b0-23" value="提交去背景任务" style="html=1;verticalAlign=bottom;endArrow=block;labelBackgroundColor=none;fontFamily=Verdana;fontSize=12;fillColor=#f8cecc;strokeColor=#b85450;" parent="1" source="7baba1c4bc27f4b0-9" target="_wqEFS3N8WhZYS-gZ8FD-12" edge="1">
          <mxGeometry relative="1" as="geometry">
            <mxPoint x="510" y="420" as="sourcePoint" />
            <mxPoint x="280" y="450" as="targetPoint" />
            <Array as="points">
              <mxPoint x="250" y="440" />
            </Array>
          </mxGeometry>
        </mxCell>
        <mxCell id="7baba1c4bc27f4b0-11" value="获取上传授权签名&lt;br&gt;" style="html=1;verticalAlign=bottom;endArrow=block;entryX=0;entryY=0;labelBackgroundColor=none;fontFamily=Verdana;fontSize=12;edgeStyle=elbowEdgeStyle;elbow=vertical;fillColor=#d5e8d4;strokeColor=#82b366;" parent="1" source="7baba1c4bc27f4b0-9" target="7baba1c4bc27f4b0-10" edge="1">
          <mxGeometry relative="1" as="geometry">
            <mxPoint x="220" y="190" as="sourcePoint" />
          </mxGeometry>
        </mxCell>
        <mxCell id="_wqEFS3N8WhZYS-gZ8FD-5" value="" style="html=1;points=[];perimeter=orthogonalPerimeter;fillColor=#d5e8d4;strokeColor=#82b366;" vertex="1" parent="1">
          <mxGeometry x="290" y="230" width="10" height="40" as="geometry" />
        </mxCell>
        <mxCell id="_wqEFS3N8WhZYS-gZ8FD-6" value="云存储上传签名&lt;br&gt;" style="edgeStyle=orthogonalEdgeStyle;html=1;align=left;spacingLeft=2;endArrow=block;rounded=0;entryX=1;entryY=0;fillColor=#d5e8d4;strokeColor=#82b366;" edge="1" target="_wqEFS3N8WhZYS-gZ8FD-5" parent="1">
          <mxGeometry relative="1" as="geometry">
            <mxPoint x="295" y="210" as="sourcePoint" />
            <Array as="points">
              <mxPoint x="325" y="210" />
            </Array>
          </mxGeometry>
        </mxCell>
        <mxCell id="_wqEFS3N8WhZYS-gZ8FD-7" value="返回云存储签名信息" style="html=1;verticalAlign=bottom;endArrow=open;dashed=1;endSize=8;fillColor=#d5e8d4;strokeColor=#82b366;" edge="1" parent="1">
          <mxGeometry relative="1" as="geometry">
            <mxPoint x="290" y="280" as="sourcePoint" />
            <mxPoint x="160" y="280" as="targetPoint" />
          </mxGeometry>
        </mxCell>
        <mxCell id="_wqEFS3N8WhZYS-gZ8FD-10" value="上传图片&lt;br&gt;" style="html=1;verticalAlign=bottom;startArrow=oval;startFill=1;endArrow=block;startSize=8;fillColor=#d5e8d4;strokeColor=#82b366;" edge="1" parent="1">
          <mxGeometry width="60" relative="1" as="geometry">
            <mxPoint x="160" y="320" as="sourcePoint" />
            <mxPoint x="620" y="320" as="targetPoint" />
          </mxGeometry>
        </mxCell>
        <mxCell id="_wqEFS3N8WhZYS-gZ8FD-11" value="返回图片url" style="html=1;verticalAlign=bottom;endArrow=open;dashed=1;endSize=8;fillColor=#d5e8d4;strokeColor=#82b366;" edge="1" parent="1" source="7baba1c4bc27f4b0-3">
          <mxGeometry relative="1" as="geometry">
            <mxPoint x="240" y="369" as="sourcePoint" />
            <mxPoint x="160" y="369" as="targetPoint" />
          </mxGeometry>
        </mxCell>
        <mxCell id="_wqEFS3N8WhZYS-gZ8FD-12" value="" style="html=1;points=[];perimeter=orthogonalPerimeter;fillColor=#f8cecc;strokeColor=#b85450;" vertex="1" parent="1">
          <mxGeometry x="285" y="400" width="10" height="120" as="geometry" />
        </mxCell>
        <mxCell id="_wqEFS3N8WhZYS-gZ8FD-13" value="" style="html=1;points=[];perimeter=orthogonalPerimeter;fillColor=#f8cecc;strokeColor=#b85450;" vertex="1" parent="1">
          <mxGeometry x="290" y="460" width="10" height="40" as="geometry" />
        </mxCell>
        <mxCell id="_wqEFS3N8WhZYS-gZ8FD-14" value="创建任务" style="edgeStyle=orthogonalEdgeStyle;html=1;align=left;spacingLeft=2;endArrow=block;rounded=0;entryX=1;entryY=0;fillColor=#f8cecc;strokeColor=#b85450;" edge="1" target="_wqEFS3N8WhZYS-gZ8FD-13" parent="1">
          <mxGeometry relative="1" as="geometry">
            <mxPoint x="295" y="440" as="sourcePoint" />
            <Array as="points">
              <mxPoint x="325" y="440" />
            </Array>
          </mxGeometry>
        </mxCell>
        <mxCell id="_wqEFS3N8WhZYS-gZ8FD-15" value="返回任务id" style="html=1;verticalAlign=bottom;endArrow=open;dashed=1;endSize=8;exitX=0.2;exitY=0.925;exitDx=0;exitDy=0;exitPerimeter=0;fillColor=#f8cecc;strokeColor=#b85450;" edge="1" parent="1" source="_wqEFS3N8WhZYS-gZ8FD-12">
          <mxGeometry relative="1" as="geometry">
            <mxPoint x="240" y="510" as="sourcePoint" />
            <mxPoint x="160" y="510" as="targetPoint" />
          </mxGeometry>
        </mxCell>
        <mxCell id="_wqEFS3N8WhZYS-gZ8FD-16" value="轮询任务结果" style="html=1;verticalAlign=bottom;startArrow=oval;startFill=1;endArrow=block;startSize=8;fillColor=#f8cecc;strokeColor=#b85450;" edge="1" parent="1">
          <mxGeometry width="60" relative="1" as="geometry">
            <mxPoint x="160" y="562" as="sourcePoint" />
            <mxPoint x="289.5" y="562" as="targetPoint" />
          </mxGeometry>
        </mxCell>
        <mxCell id="_wqEFS3N8WhZYS-gZ8FD-17" value="" style="html=1;points=[];perimeter=orthogonalPerimeter;fillColor=#f8cecc;strokeColor=#b85450;" vertex="1" parent="1">
          <mxGeometry x="285" y="549" width="10" height="60" as="geometry" />
        </mxCell>
        <mxCell id="_wqEFS3N8WhZYS-gZ8FD-18" value="返回状态结果url" style="html=1;verticalAlign=bottom;endArrow=open;dashed=1;endSize=8;fillColor=#f8cecc;strokeColor=#b85450;" edge="1" parent="1">
          <mxGeometry relative="1" as="geometry">
            <mxPoint x="289.5" y="592" as="sourcePoint" />
            <mxPoint x="160" y="592" as="targetPoint" />
            <Array as="points">
              <mxPoint x="260" y="592" />
              <mxPoint x="190" y="592" />
            </Array>
          </mxGeometry>
        </mxCell>
        <mxCell id="_wqEFS3N8WhZYS-gZ8FD-27" value="" style="html=1;points=[];perimeter=orthogonalPerimeter;fillColor=#a20025;strokeColor=#6F0000;fontColor=#ffffff;" vertex="1" parent="1">
          <mxGeometry x="285" y="630" width="10" height="106" as="geometry" />
        </mxCell>
        <mxCell id="_wqEFS3N8WhZYS-gZ8FD-30" value="" style="html=1;points=[];perimeter=orthogonalPerimeter;fillColor=#a20025;strokeColor=#6F0000;fontColor=#ffffff;" vertex="1" parent="1">
          <mxGeometry x="290" y="696" width="10" height="20" as="geometry" />
        </mxCell>
        <mxCell id="_wqEFS3N8WhZYS-gZ8FD-31" value="更新任务状态" style="edgeStyle=orthogonalEdgeStyle;html=1;align=left;spacingLeft=2;endArrow=block;rounded=0;entryX=1;entryY=0;fillColor=#a20025;strokeColor=#6F0000;" edge="1" target="_wqEFS3N8WhZYS-gZ8FD-30" parent="1">
          <mxGeometry relative="1" as="geometry">
            <mxPoint x="295" y="676" as="sourcePoint" />
            <Array as="points">
              <mxPoint x="325" y="676" />
            </Array>
          </mxGeometry>
        </mxCell>
        <mxCell id="_wqEFS3N8WhZYS-gZ8FD-32" value="订阅 任务结果 队列" style="html=1;verticalAlign=bottom;endArrow=open;dashed=1;endSize=8;fillColor=#a20025;strokeColor=#6F0000;" edge="1" parent="1">
          <mxGeometry relative="1" as="geometry">
            <mxPoint x="743" y="646" as="sourcePoint" />
            <mxPoint x="289.5" y="646" as="targetPoint" />
            <Array as="points">
              <mxPoint x="440" y="646" />
            </Array>
          </mxGeometry>
        </mxCell>
        <mxCell id="_wqEFS3N8WhZYS-gZ8FD-56" value="" style="endArrow=block;dashed=1;endFill=0;endSize=12;html=1;exitX=0.9;exitY=0.5;exitDx=0;exitDy=0;exitPerimeter=0;fillColor=#f8cecc;strokeColor=#b85450;" edge="1" parent="1" source="_wqEFS3N8WhZYS-gZ8FD-13">
          <mxGeometry width="160" relative="1" as="geometry">
            <mxPoint x="311" y="479.5" as="sourcePoint" />
            <mxPoint x="743" y="480" as="targetPoint" />
            <Array as="points">
              <mxPoint x="730" y="480" />
            </Array>
          </mxGeometry>
        </mxCell>
        <mxCell id="_wqEFS3N8WhZYS-gZ8FD-59" value="" style="html=1;points=[];perimeter=orthogonalPerimeter;rounded=0;shadow=0;comic=0;labelBackgroundColor=none;strokeWidth=1;fontFamily=Verdana;fontSize=12;align=center;fillColor=#a20025;strokeColor=#6F0000;fontColor=#ffffff;" vertex="1" parent="1">
          <mxGeometry x="461" y="658" width="10" height="192" as="geometry" />
        </mxCell>
        <mxCell id="_wqEFS3N8WhZYS-gZ8FD-60" value="" style="html=1;points=[];perimeter=orthogonalPerimeter;fillColor=#a20025;strokeColor=#6F0000;fontColor=#ffffff;" vertex="1" parent="1">
          <mxGeometry x="468" y="720" width="10" height="110" as="geometry" />
        </mxCell>
        <mxCell id="_wqEFS3N8WhZYS-gZ8FD-61" value="" style="html=1;points=[];perimeter=orthogonalPerimeter;fillColor=#a20025;strokeColor=#6F0000;fontColor=#ffffff;" vertex="1" parent="1">
          <mxGeometry x="616" y="714" width="10" height="66" as="geometry" />
        </mxCell>
        <mxCell id="_wqEFS3N8WhZYS-gZ8FD-62" value="获取任务id,url" style="edgeStyle=orthogonalEdgeStyle;html=1;align=left;spacingLeft=2;endArrow=block;rounded=0;entryX=1;entryY=0;fillColor=#a20025;strokeColor=#6F0000;" edge="1" parent="1" target="_wqEFS3N8WhZYS-gZ8FD-60">
          <mxGeometry relative="1" as="geometry">
            <mxPoint x="473" y="708" as="sourcePoint" />
            <Array as="points">
              <mxPoint x="503" y="708" />
            </Array>
          </mxGeometry>
        </mxCell>
        <mxCell id="_wqEFS3N8WhZYS-gZ8FD-63" value="订阅 任务队列" style="html=1;verticalAlign=bottom;endArrow=open;dashed=1;endSize=8;exitX=0.2;exitY=0.049;exitDx=0;exitDy=0;exitPerimeter=0;fillColor=#a20025;strokeColor=#6F0000;" edge="1" parent="1">
          <mxGeometry relative="1" as="geometry">
            <mxPoint x="738" y="678" as="sourcePoint" />
            <mxPoint x="470" y="678" as="targetPoint" />
          </mxGeometry>
        </mxCell>
        <mxCell id="_wqEFS3N8WhZYS-gZ8FD-64" value="提交任务id,和结果url到&amp;nbsp; 任务结果 队列&lt;br&gt;" style="html=1;verticalAlign=bottom;endArrow=block;fillColor=#a20025;strokeColor=#6F0000;" edge="1" parent="1">
          <mxGeometry width="80" relative="1" as="geometry">
            <mxPoint x="477" y="814" as="sourcePoint" />
            <mxPoint x="741.5" y="814" as="targetPoint" />
            <Array as="points">
              <mxPoint x="489" y="814" />
              <mxPoint x="669" y="814" />
            </Array>
          </mxGeometry>
        </mxCell>
        <mxCell id="_wqEFS3N8WhZYS-gZ8FD-65" value="下载任务 url" style="html=1;verticalAlign=bottom;endArrow=open;dashed=1;endSize=8;fillColor=#a20025;strokeColor=#6F0000;" edge="1" parent="1" source="7baba1c4bc27f4b0-3">
          <mxGeometry relative="1" as="geometry">
            <mxPoint x="558" y="740" as="sourcePoint" />
            <mxPoint x="478" y="740" as="targetPoint" />
          </mxGeometry>
        </mxCell>
        <mxCell id="_wqEFS3N8WhZYS-gZ8FD-66" value="上传处理结果图片" style="html=1;verticalAlign=bottom;endArrow=block;entryX=-0.2;entryY=0.773;entryDx=0;entryDy=0;entryPerimeter=0;fillColor=#a20025;strokeColor=#6F0000;" edge="1" parent="1" target="_wqEFS3N8WhZYS-gZ8FD-61">
          <mxGeometry width="80" relative="1" as="geometry">
            <mxPoint x="478" y="766.5" as="sourcePoint" />
            <mxPoint x="615" y="770.972" as="targetPoint" />
          </mxGeometry>
        </mxCell>
        <mxCell id="_wqEFS3N8WhZYS-gZ8FD-68" value="&lt;span style=&quot;font-size: 11px ; background-color: rgb(255 , 255 , 255)&quot;&gt;提交任务id,url 到 任务队列&lt;/span&gt;" style="text;html=1;align=center;verticalAlign=middle;resizable=0;points=[];autosize=1;strokeColor=none;" vertex="1" parent="1">
          <mxGeometry x="440" y="450" width="160" height="20" as="geometry" />
        </mxCell>
      </root>
    </mxGraphModel>
  </diagram>
</mxfile>
